# xmcd
#
# Track frame offsets: 
#        150
#        19450
#        31699
#        39525
#        61163
#        68931
#        77965
#        91917
#        110173
#        119448
#        130664
#        141562
#        159599
#        177559
#        189255
#        199823
#        209482
#        217379
#        229509
#
# Disc length: 3266 seconds
#
# Revision: 0
# Processed by: cddbd v1.5.2PL0 Copyright (c) Steve Scherf et al.
# Submitted via: ExactAudioCopy v1.3
#
DISCID=200cc013
DTITLE=Françoise Hardy - Live in the Sixties
DYEAR=2018
DGENRE=Chanson
TTITLE0=Commentaires and Ca A Raté (Musicorama, Europe 1, 1963-02-03) 
TTITLE1=J'ai Jeté Mon Coeur (Musicorama, Europe 1, 1963-02-03) 
TTITLE2=J'Suis D'Accord (Musicorama, Europe 1, 1963-02-03) 
TTITLE3=Ton Meilleur Ami and Commentaires (Musicorama, Europe 1, 1963-02
TTITLE3=03) 
TTITLE4=Je Pense A Lui (Musicorama, Europe 1, 1963-11-24) 
TTITLE5=Le Premier Bonheur Du Jour (Musicorama, Europe 1, 1963-11-24) 
TTITLE6=Tous Les Garçons Et Les Filles (Musicorama, Europe 1, 1963-11-
TTITLE6=24) 
TTITLE7=Le Temps De L'Amour and Commentaires (Musicorama, Europe 1, 1963
TTITLE7=11-24) 
TTITLE8=Pas Gentille (Musicorama, Europe 1, 1965-08-01) 
TTITLE9=Mon Amie La Rose and Commentaires (Musicorama, Europe 1, 1965-08
TTITLE9=01) 
TTITLE10=Comme Tant D'Autres (Musicorama, Europe 1, 1965-08-01) 
TTITLE11=Commentaires and Je N'Attends Plus Personne (Musicorama, Europe
TTITLE11=1, 1963-10-12) 
TTITLE12=L'Amitié and Commentaires (Musicorama, Europe 1, 1963-10-12) 
TTITLE13=Dis-Lui Non (Musicorama, Europe 1, 1965-10-31) 
TTITLE14=Pars (Musicorama, Europe 1, 1965-10-31) 
TTITLE15=Le Temps Des Souvenirs and Commentaires (Musicorama, Europe 1, 
TTITLE15=1965-10-31) 
TTITLE16=Ce Petit Coeur (Musicorama, Europe 1, 1965-10-31) 
TTITLE17=L'Amitié and Commentaires (Musicorama, Europe 1, 1965-10-31) 
TTITLE18=Tous Les Garçons Et Les Filles and Commentaires (Musicorama, Eu
TTITLE18=rope 1, 1963-02-03)
EXTD=
EXTT0=
EXTT1=
EXTT2=
EXTT3=
EXTT4=
EXTT5=
EXTT6=
EXTT7=
EXTT8=
EXTT9=
EXTT10=
EXTT11=
EXTT12=
EXTT13=
EXTT14=
EXTT15=
EXTT16=
EXTT17=
EXTT18=
PLAYORDER=
